<svg width="109" height="154" viewBox="0 0 109 154" fill="none" xmlns="http://www.w3.org/2000/svg">
<path d="M0 10C0 4.47715 4.47715 0 10 0H113V159H0V10Z" fill="#FF4D00"/>
<path d="M55.1768 111.715C56.1531 112.691 57.736 112.691 58.7123 111.715L74.6223 95.8046C75.5986 94.8283 75.5986 93.2454 74.6223 92.2691C73.6459 91.2928 72.063 91.2928 71.0867 92.2691L56.9446 106.411L42.8024 92.2691C41.8261 91.2928 40.2432 91.2928 39.2669 92.2691C38.2906 93.2454 38.2906 94.8283 39.2669 95.8046L55.1768 111.715ZM54.4446 49.0532L54.4446 109.947L59.4446 109.947L59.4446 49.0532L54.4446 49.0532Z" fill="white"/>
</svg>
